<?xml version="1.0" standalone="no"?>
<!DOCTYPE svg PUBLIC "-//W3C//DTD SVG 20010904//EN"
 "http://www.w3.org/TR/2001/REC-SVG-20010904/DTD/svg10.dtd">
<svg version="1.0" xmlns="http://www.w3.org/2000/svg"
 width="346.000000pt" height="421.000000pt" viewBox="0 0 346.000000 421.000000"
 preserveAspectRatio="xMidYMid meet">

<g transform="translate(0.000000,421.000000) scale(0.100000,-0.100000)"
fill="#000000" stroke="none">
<path d="M1570 3890 c-66 -27 -84 -33 -92 -32 -3 1 -40 11 -82 22 -87 23 -170
26 -207 6 -14 -7 -36 -16 -50 -19 -30 -8 -109 -81 -109 -101 0 -23 -57 -64
-111 -80 -27 -8 -63 -24 -79 -36 -77 -55 -128 -284 -111 -500 5 -58 6 -128 4
-157 -3 -28 0 -66 6 -83 9 -26 7 -43 -10 -93 -19 -54 -21 -79 -17 -197 4 -111
8 -142 25 -175 11 -22 33 -80 48 -130 27 -88 30 -92 111 -172 80 -78 84 -83
84 -126 0 -37 -5 -48 -25 -61 -14 -9 -25 -20 -25 -25 0 -4 -24 -34 -54 -66
-64 -69 -171 -237 -196 -308 -10 -29 -37 -95 -61 -147 -40 -89 -43 -102 -47
-197 -3 -70 0 -103 7 -103 7 0 11 -22 11 -57 0 -44 7 -68 31 -112 45 -82 76
-111 116 -111 32 0 33 -2 33 -37 0 -80 -21 -218 -35 -233 -24 -26 -19 -65 10
-78 44 -20 384 -34 651 -27 170 5 253 4 258 -3 16 -27 572 -3 674 29 39 13 40
28 7 77 -25 37 -33 96 -15 107 6 4 8 10 5 14 -2 5 30 11 73 14 121 8 268 86
426 226 38 34 93 77 122 96 29 19 56 44 59 55 4 13 -4 39 -23 73 -16 28 -35
70 -42 92 -6 22 -25 68 -42 101 l-31 62 27 66 c32 82 33 113 1 176 -23 46 -28
50 -61 50 -36 0 -47 9 -121 92 -18 21 -219 127 -300 159 -13 5 -33 13 -45 18
-48 19 -107 31 -151 31 -25 0 -49 5 -52 11 -8 12 28 66 87 131 75 82 88 99 88
115 0 8 15 42 34 76 58 105 106 267 117 392 6 61 14 135 19 165 14 80 -6 651
-25 747 -6 28 -64 63 -103 63 -48 0 -60 9 -92 69 -39 72 -99 111 -169 111 -26
0 -63 5 -81 11 -24 9 -49 9 -99 0 -56 -10 -74 -9 -121 5 -83 25 -195 27 -250
4z m195 -25 c22 -8 49 -15 60 -15 18 0 85 -68 85 -85 0 -4 15 -28 32 -53 18
-26 34 -49 35 -51 2 -3 10 4 17 15 13 16 13 21 0 35 -8 8 -14 23 -14 32 0 9
-5 19 -10 22 -6 4 -7 11 -4 17 4 6 -6 22 -21 34 -16 13 -26 26 -23 30 19 18
186 -1 248 -29 46 -20 64 -40 108 -117 36 -62 39 -65 78 -68 29 -2 49 -11 67
-30 25 -27 26 -30 36 -266 6 -131 8 -242 5 -248 -3 -5 0 -15 6 -23 9 -10 10
-39 6 -97 -14 -173 -23 -179 -66 -43 -7 22 -16 42 -20 45 -9 6 -100 197 -100
209 0 5 -16 33 -36 62 -20 30 -56 96 -80 147 -27 54 -51 92 -59 92 -11 0 -15
12 -15 45 0 37 -3 45 -19 45 -11 0 -21 -9 -24 -21 -6 -21 -9 -22 -99 -15 -146
11 -138 5 -138 96 0 64 -3 80 -20 95 -19 17 -20 17 -21 -1 -1 -10 -1 -23 0
-28 1 -5 -3 -41 -9 -78 -10 -59 -16 -71 -36 -78 -14 -6 -101 -10 -194 -9 -163
0 -170 1 -181 21 -7 12 -9 41 -6 69 5 38 3 47 -8 43 -15 -6 -45 -64 -45 -88 0
-22 -36 -38 -94 -42 -28 -2 -67 -5 -86 -6 -34 -3 -35 -2 -40 37 l-5 40 -19
-53 c-10 -29 -24 -59 -32 -66 -61 -61 -189 -294 -237 -431 -5 -16 -12 -37 -15
-45 -3 -8 -10 41 -15 109 -10 147 10 362 41 422 35 69 59 91 109 100 27 5 50
14 51 19 2 6 9 10 16 10 15 0 51 35 102 100 20 25 48 51 63 59 36 20 183 26
256 11 76 -16 116 -14 163 7 68 32 149 38 207 18z m-428 -376 c7 -7 83 -8 234
-5 261 7 306 7 412 4 74 -3 80 -5 103 -33 31 -39 132 -223 162 -294 12 -30 40
-91 61 -135 57 -120 71 -152 103 -251 36 -109 34 -152 -17 -302 -19 -55 -35
-108 -35 -117 0 -9 -7 -19 -15 -22 -8 -4 -15 -10 -15 -16 0 -5 -23 -47 -50
-92 -41 -68 -64 -94 -122 -137 -168 -127 -256 -167 -443 -200 -107 -19 -312
11 -381 55 -22 15 -48 25 -154 63 -55 19 -139 73 -201 127 -26 23 -58 49 -71
58 -34 23 -91 122 -116 199 -30 95 -48 256 -34 311 6 24 12 73 13 108 1 41 7
71 17 82 8 10 14 30 14 45 0 15 7 37 14 48 8 11 19 38 25 60 6 22 23 61 39 86
15 25 38 76 50 113 13 37 29 70 36 73 7 2 15 15 18 29 8 30 100 99 175 130 60
25 159 32 178 13z m-239 -1505 c20 -6 22 -12 22 -85 0 -85 12 -129 34 -129 8
0 37 -5 65 -11 l49 -10 -9 -32 c-18 -63 -13 -72 67 -132 41 -31 73 -62 71 -68
-8 -24 -36 -17 -93 23 -127 88 -143 101 -172 147 -43 68 -122 224 -122 240 0
15 44 63 57 63 4 0 18 -3 31 -6z m116 -44 c11 -1 44 -14 71 -30 28 -17 67 -38
87 -46 36 -16 81 -72 123 -154 10 -19 21 -37 24 -40 17 -14 41 -86 41 -125 l0
-45 -43 0 c-43 0 -70 17 -93 62 -10 19 -63 59 -111 84 -38 19 -41 32 -13 67
21 27 27 57 10 57 -5 0 -10 6 -10 13 0 13 -73 37 -114 37 -20 0 -24 6 -29 48
-3 26 -9 63 -13 82 l-7 34 28 -22 c15 -12 37 -22 49 -22z m896 13 c86 -58 189
-184 244 -298 38 -77 66 -145 66 -158 0 -8 14 -59 31 -113 24 -78 29 -111 25
-152 -2 -30 -1 -64 4 -77 6 -17 5 -27 -5 -35 -15 -13 -33 -9 -110 22 -49 19
-51 22 -63 72 -7 28 -12 79 -12 112 0 72 -8 99 -66 220 -39 82 -66 115 -82 99
-3 -3 -1 -20 5 -39 l10 -34 -41 29 c-23 15 -54 31 -70 35 -27 6 -28 6 -16 -17
22 -42 116 -109 154 -109 14 0 18 -11 32 -93 l6 -38 -33 14 c-85 36 -264 77
-406 92 -77 9 -81 23 -17 68 40 28 54 32 107 32 60 0 62 1 59 25 -1 14 -16 35
-32 48 -36 28 -38 51 -7 79 34 32 86 44 140 34 45 -8 47 -8 47 16 0 13 -11 51
-25 84 -15 34 -23 69 -20 80 8 24 42 25 75 2z m157 -19 c32 -9 72 -18 88 -21
17 -2 39 -8 50 -13 41 -17 131 -61 150 -73 80 -48 123 -78 134 -91 12 -14 9
-16 -17 -16 -17 0 -66 -11 -108 -25 -42 -14 -88 -25 -102 -25 -14 0 -34 -7
-44 -17 -15 -14 -18 -14 -18 -1 0 37 -76 165 -137 229 -36 38 -63 69 -60 69 3
0 32 -7 64 -16z m-249 -49 c16 -60 16 -60 -10 -63 -36 -3 -132 -39 -136 -51
-2 -6 -10 -11 -18 -11 -19 0 -19 -60 0 -105 14 -32 13 -35 -2 -35 -21 0 -154
-73 -171 -94 -19 -23 -58 -20 -72 5 -21 39 -5 96 39 137 21 20 56 63 76 95 41
64 83 95 183 137 92 39 97 38 111 -15z m-1007 -47 c16 -29 44 -82 61 -117 18
-36 49 -81 69 -100 64 -64 119 -111 129 -111 6 0 10 -4 10 -10 0 -5 -10 -10
-23 -10 -12 0 -39 -9 -60 -20 -20 -11 -54 -20 -75 -20 -20 0 -78 -13 -127 -30
-50 -16 -98 -30 -107 -30 -40 0 -4 58 61 100 52 33 62 45 55 63 -9 24 -42 13
-76 -27 -28 -32 -38 -26 -13 8 8 11 15 31 15 44 l0 24 -24 -29 c-13 -15 -31
-43 -40 -60 -30 -60 -76 -194 -76 -224 0 -18 -5 -29 -14 -29 -8 0 -16 -5 -18
-11 -2 -6 -32 -13 -66 -16 l-62 -6 0 39 c1 22 9 57 20 79 11 22 19 45 20 50 0
6 9 28 20 50 11 22 20 46 20 55 0 8 29 65 64 125 36 61 75 128 88 150 24 42
107 129 115 121 3 -2 18 -29 34 -58z m753 7 c-34 -24 -105 -94 -154 -152 l-35
-41 -20 32 c-12 17 -34 56 -49 86 -15 30 -37 64 -49 75 l-22 20 178 0 179 0
-28 -20z m1035 -183 c37 -27 39 -71 5 -128 -36 -61 -139 -164 -189 -189 -22
-11 -43 -24 -46 -28 -6 -8 -57 -37 -65 -37 -2 0 -4 16 -4 36 0 20 -14 77 -31
128 -48 142 -47 148 9 178 26 14 63 28 82 32 19 3 58 13 85 21 61 18 119 13
154 -13z m56 -230 c-23 -40 -47 -61 -161 -135 -142 -92 -194 -114 -194 -81 0
14 29 34 98 72 53 29 114 69 135 90 38 37 121 173 135 222 5 17 8 2 10 -48 2
-63 -1 -79 -23 -120z m-1165 -37 c0 -59 -2 -65 -21 -65 -25 0 -49 13 -106 56
-25 19 -53 34 -64 34 -18 0 -26 20 -12 33 3 4 51 7 105 7 l98 0 0 -65z m105
51 c11 -7 63 -19 115 -26 91 -11 256 -49 311 -71 22 -9 27 -18 33 -62 3 -29 6
-67 6 -86 0 -28 -3 -32 -17 -26 -31 13 -66 23 -153 46 -47 12 -107 28 -135 35
-27 8 -74 14 -105 14 -82 0 -108 25 -116 112 -7 69 -8 67 36 77 3 0 14 -5 25
-13z m-397 -39 c27 -40 28 -73 4 -86 -10 -5 -99 -12 -197 -16 -140 -6 -201
-13 -274 -31 -52 -13 -97 -22 -100 -18 -3 3 -6 18 -6 32 0 23 10 32 63 59 112
57 253 91 387 92 l100 1 23 -33z m151 -53 l24 -13 -25 -6 c-45 -11 -71 -2 -79
27 -7 26 -6 26 24 15 18 -6 42 -16 56 -23z m1340 -99 c26 -68 26 -84 2 -160
-13 -44 -24 -61 -38 -63 -27 -4 -123 40 -123 56 0 7 19 50 43 95 24 45 46 92
49 105 4 13 14 22 26 22 16 0 26 -13 41 -55z m-119 -7 c-12 -23 -38 -68 -56
-99 l-34 -57 -60 19 c-72 22 -100 36 -100 49 0 6 8 10 18 10 10 0 38 13 63 29
25 15 61 33 80 40 19 6 50 22 69 35 19 13 36 23 38 21 2 -2 -6 -23 -18 -47z
m-1131 18 c7 -8 28 -17 48 -21 19 -3 43 -10 52 -14 90 -42 120 -63 160 -115
24 -32 62 -69 85 -83 22 -14 58 -40 78 -57 35 -29 76 -52 161 -89 l38 -17 -2
-78 c-1 -42 2 -94 6 -116 l8 -39 -67 55 c-98 81 -196 120 -314 126 -94 4 -172
-12 -197 -43 -16 -19 -115 -86 -116 -78 0 5 -4 -1 -9 -12 -8 -20 -9 -20 -9 1
-1 11 -4 24 -8 28 -5 4 -12 55 -18 114 -9 91 -13 107 -28 110 -18 4 -19 -4
-17 -110 3 -137 2 -148 -7 -148 -5 0 -33 22 -64 48 -37 32 -74 53 -105 62 -27
7 -53 17 -59 21 -42 39 -314 -43 -395 -118 -24 -22 -32 -26 -47 -20 -3 1 -6
37 -6 80 0 76 1 79 30 97 16 10 38 29 49 42 10 13 42 40 70 59 102 71 196 155
243 220 72 98 100 109 282 109 113 0 149 -3 158 -14z m-562 -24 c14 -9 -72
-115 -116 -144 -25 -17 -26 -17 -33 2 -5 12 -17 20 -31 20 -20 0 -26 7 -35 39
l-10 40 42 16 c71 29 160 42 183 27z m133 3 c0 -20 -46 -82 -100 -136 -62 -62
-103 -93 -197 -153 l-43 -26 0 35 c0 28 5 38 25 47 13 6 27 18 30 27 3 9 21
25 40 35 44 24 101 80 127 128 16 28 29 38 52 41 54 7 66 7 66 2z m783 -39
c48 -14 95 -26 105 -26 9 0 51 -11 92 -23 53 -17 76 -29 78 -41 4 -17 -3 -18
-65 -14 -57 3 -87 13 -193 62 -69 33 -138 63 -155 67 -27 7 -26 8 10 5 22 -2
79 -15 128 -30z m-1171 -46 c6 -36 4 -48 -11 -65 -11 -11 -21 -29 -23 -40 -3
-21 -123 -89 -140 -79 -20 13 -5 34 32 44 45 12 85 45 95 77 5 19 0 25 -31 38
-32 13 -41 13 -81 0 -24 -8 -46 -15 -48 -15 -10 0 -4 38 8 48 19 16 118 40
157 38 33 -1 35 -3 42 -46z m1174 -16 c42 -19 95 -53 119 -75 25 -23 54 -48
65 -56 11 -8 29 -32 40 -54 25 -48 8 -53 -39 -13 -58 48 -182 124 -193 118 -7
-4 -8 -2 -4 4 4 7 -3 16 -18 21 -13 6 -39 31 -56 56 -38 55 -36 55 86 -1z
m959 -80 c-16 -13 -31 -21 -33 -19 -3 2 1 24 9 49 l13 44 20 -25 20 -26 -29
-23z m-2217 30 c-2 -17 -15 -32 -41 -47 -38 -22 -39 -22 -53 -3 -20 28 -18 33
24 55 53 29 74 27 70 -5z m1675 -2 c100 -20 106 -42 12 -42 -75 0 -81 -9 -32
-56 35 -35 72 -50 81 -35 4 5 -2 12 -12 15 -10 4 -30 18 -43 33 l-24 26 40 -6
c22 -4 48 -7 58 -7 21 0 23 -33 3 -49 -7 -6 -17 -26 -20 -44 l-7 -32 -17 21
c-24 30 -88 52 -110 37 -16 -9 -17 -7 -14 23 3 22 -3 42 -16 61 -24 34 -20 88
7 78 9 -4 51 -14 94 -23z m-1533 -27 c0 -27 -10 -31 -41 -14 -16 8 -18 13 -8
25 20 24 49 17 49 -11z m1337 7 c21 -7 21 -8 5 -30 l-18 -23 -29 31 -29 30 25
-1 c13 -1 34 -4 46 -7z m434 -19 c7 -7 3 -24 -14 -54 -14 -24 -33 -71 -43
-104 -24 -80 -44 -103 -79 -87 -14 7 -36 12 -48 12 -20 1 -21 2 -4 14 9 7 17
16 17 19 0 3 14 29 30 57 24 41 30 62 30 109 l0 57 50 -6 c28 -4 55 -11 61
-17z m-350 -37 c12 -26 -2 -66 -24 -66 -36 0 -51 61 -19 79 25 15 31 13 43
-13z m448 10 c6 -7 30 -16 52 -20 34 -5 40 -10 37 -28 -2 -16 -15 -27 -44 -38
-22 -8 -54 -28 -71 -45 -36 -36 -141 -100 -149 -92 -4 3 8 25 25 49 17 23 31
50 31 60 0 24 26 76 53 106 23 25 49 28 66 8z m-1919 -79 c3 -31 2 -57 -2 -57
-4 0 -16 14 -28 30 -12 17 -28 30 -36 30 -17 0 -17 -8 1 -40 8 -14 14 -28 15
-32 1 -23 -64 5 -102 43 -16 16 -13 19 55 53 40 20 77 34 82 33 6 -2 12 -29
15 -60z m1584 -38 c37 -29 32 -63 -9 -67 -47 -5 -96 54 -68 81 13 14 51 7 77
-14z m33 -130 c29 -6 55 -14 58 -18 13 -22 -144 -53 -171 -34 -6 4 -15 23 -19
41 l-7 33 44 -6 c23 -4 67 -11 95 -16z m-1166 -19 c46 -17 142 -82 169 -115
14 -17 10 -18 -85 -11 -55 4 -149 2 -210 -3 -60 -6 -152 -8 -203 -5 -89 7 -92
8 -76 25 33 36 110 78 199 108 97 33 121 33 206 1z m690 8 c54 -23 215 -114
223 -126 2 -4 -126 -7 -284 -7 -253 0 -287 2 -280 15 15 28 69 73 127 106 72
41 135 44 214 12z m-65 -162 c1 -1 5 -20 9 -43 6 -36 4 -43 -15 -53 -30 -16
-46 2 -54 62 l-6 47 33 -6 c17 -3 33 -6 33 -7z m-271 -36 c8 -47 2 -60 -30
-60 -36 0 -49 55 -19 84 26 26 42 19 49 -24z m78 21 c4 -4 8 -25 10 -46 1 -30
-2 -40 -15 -43 -21 -4 -58 51 -58 87 0 20 3 22 28 16 15 -3 30 -10 35 -14z
m107 -45 l0 -53 -31 5 c-24 4 -34 12 -45 38 -8 18 -14 38 -14 44 0 15 38 28
67 22 21 -4 23 -10 23 -56z m183 44 c5 -4 10 -23 10 -41 2 -30 -1 -34 -24 -37
-24 -3 -29 2 -42 42 -8 24 -13 47 -10 50 7 7 55 -3 66 -14z m110 13 c3 -5 7
-26 9 -48 3 -35 0 -40 -20 -43 -13 -2 -30 2 -38 8 -14 13 -20 71 -7 83 9 9 51
9 56 0z m-823 -35 c0 -50 -13 -64 -44 -50 -44 20 -32 82 15 82 26 0 29 -3 29
-32z m112 6 c11 -23 10 -28 -7 -41 -11 -7 -31 -13 -45 -11 -20 2 -26 10 -31
41 l-6 37 39 0 c32 0 40 -5 50 -26z m75 17 c13 -1 35 -59 27 -72 -6 -11 -45
-12 -60 -1 -6 4 -13 23 -15 43 -4 31 -2 35 16 33 11 -1 25 -3 32 -3z m730 -3
c6 -7 13 -28 16 -45 6 -32 6 -33 -28 -33 -32 0 -35 3 -35 29 0 16 -3 36 -6 45
-5 12 0 16 19 16 13 0 29 -6 34 -12z m-1287 -39 c0 -36 -2 -40 -22 -37 -40 5
-37 78 2 78 17 0 20 -6 20 -41z m90 2 c0 -35 -3 -39 -30 -43 -29 -4 -30 -3
-30 32 0 43 5 50 37 50 20 0 23 -5 23 -39z m108 -3 l3 -38 -45 0 c-45 0 -46 0
-46 33 0 43 6 49 50 45 33 -3 35 -5 38 -40z m80 0 c3 -35 1 -38 -22 -38 -31 0
-37 10 -30 49 5 25 11 31 28 29 16 -2 22 -11 24 -40z m1082 16 c14 -35 13 -44
-5 -44 -16 0 -35 30 -35 54 0 26 30 18 40 -10z m-1440 -23 c0 -27 -1 -28 -34
-17 l-33 10 31 17 c17 10 32 18 34 18 1 1 2 -12 2 -28z"/>
<path d="M1391 3305 c-30 -9 -58 -30 -92 -67 -48 -53 -60 -87 -36 -106 9 -7
28 8 72 59 60 68 60 68 113 69 43 0 52 3 52 18 0 42 -34 50 -109 27z"/>
<path d="M1718 3288 c-27 -7 -38 -15 -38 -29 0 -23 32 -26 50 -4 33 40 108 3
155 -77 56 -95 91 -64 38 33 -43 80 -106 103 -205 77z"/>
<path d="M1479 3170 c-47 -3 -85 -11 -102 -22 -41 -28 -109 -97 -103 -107 3
-5 -10 -21 -29 -35 -19 -15 -38 -39 -41 -54 -4 -15 -11 -32 -16 -38 -11 -15
-19 -61 -24 -144 -3 -56 0 -73 24 -119 15 -30 36 -59 47 -65 11 -6 25 -17 31
-25 18 -23 177 -10 239 20 44 21 52 30 65 71 8 27 19 48 23 48 5 0 5 -5 1 -12
-4 -6 -3 -8 3 -5 6 4 16 -5 22 -21 17 -46 47 -72 107 -92 71 -25 92 -25 124 0
14 11 33 20 43 20 10 0 15 5 12 10 -3 6 4 14 17 19 34 13 47 32 58 87 21 100
23 124 10 139 -7 8 -8 15 -2 15 35 0 -104 255 -155 284 -10 5 -73 9 -140 8
-86 -1 -125 2 -130 11 -6 8 -30 11 -84 7z m81 -52 c18 -29 20 -53 21 -203 l2
-170 9 164 c5 90 13 174 18 186 7 17 19 24 60 29 116 15 183 -15 222 -101 10
-23 23 -45 28 -48 5 -3 21 -42 34 -86 22 -70 23 -87 15 -146 -12 -82 -26 -105
-82 -132 -79 -38 -158 -21 -236 51 -28 26 -51 54 -51 63 0 35 -18 11 -36 -47
-10 -35 -20 -55 -22 -46 -3 16 -7 15 -37 -8 -29 -22 -46 -26 -138 -31 l-106
-6 -31 49 c-38 61 -54 116 -43 157 4 18 8 37 9 42 0 6 6 23 12 38 7 16 12 38
12 51 0 12 25 55 56 95 67 86 140 130 217 131 43 0 49 -3 67 -32z"/>
<path d="M1426 2999 c-37 -44 -30 -89 14 -89 20 0 80 61 80 81 0 46 -58 51
-94 8z"/>
<path d="M1692 3018 c-20 -20 -14 -42 21 -76 35 -34 56 -39 75 -20 19 19 14
44 -14 77 -27 32 -61 40 -82 19z"/>
<path d="M998 2605 c-37 -43 -38 -101 -1 -64 7 7 19 0 39 -23 24 -27 115 -91
134 -93 3 0 14 -6 25 -12 49 -26 150 -53 200 -53 52 0 127 19 235 58 l45 17
-43 3 c-24 2 -72 -4 -106 -12 -91 -23 -260 -22 -294 2 -15 10 -48 29 -74 41
-62 30 -127 102 -121 135 7 36 -9 37 -39 1z"/>
</g>
</svg>
